inDegrees=yes
name=ik_S55_A13_T02
DataType=double
version=3
OpenSimVersion=4.3-2021-08-27-4bc7ad9
endheader
time	pelvis_tilt	pelvis_list	pelvis_rotation	pelvis_tx	pelvis_ty	pelvis_tz	hip_flexion_r	hip_adduction_r	hip_rotation_r	knee_angle_r	knee_angle_r_beta	ankle_angle_r	subtalar_angle_r	mtp_angle_r	hip_flexion_l	hip_adduction_l	hip_rotation_l	knee_angle_l	knee_angle_l_beta	ankle_angle_l	subtalar_angle_l	mtp_angle_l	lumbar_extension	lumbar_bending	lumbar_rotation	arm_flex_r	arm_add_r	arm_rot_r	elbow_flex_r	pro_sup_r	wrist_flex_r	wrist_dev_r	arm_flex_l	arm_add_l	arm_rot_l	elbow_flex_l	pro_sup_l	wrist_flex_l	wrist_dev_l
3.140000000000002	3.242048450184587	1.827414522391546	19.24266739105118	0	0.9399999999999999	0	22.30081788878367	-8.017062661055622	-6.849731733832428	26.51619013831574	0.4627948229984603	0	0	0	22.30081788878367	-8.017062661055622	-6.849731733832428	26.51619013831574	0.4627948229984603	0	0	0	4.101402282667826	1.64344315662489	4.735072662712596	53.23911325940102	-7.506592282488427	42.52954244462769	51.02885843682112	143.6757699685004	0	0	70.0027089287027	-14.17117963133553	22.37140901301418	36.44518552337039	137.0715169620603	0	0
3.160000000000002	3.275944990077817	1.810108283686327	19.2866832368027	0	0.9399999999999999	0	22.32583960165652	-8.023906121810496	-6.856770586863161	26.5400249974214	0.4632108197666031	0	0	0	22.32583960165652	-8.023906121810496	-6.856770586863161	26.5400249974214	0.4632108197666031	0	0	0	4.12516952855147	1.621499962100643	4.794861778694772	53.69135488225182	-7.896945331622838	41.74757512858941	53.1555494374276	144.0872921881158	0	0	68.24503666341332	-14.42067000828122	22.03989597205413	38.24125279545963	136.9416551184123	0	0
3.180000000000002	3.315615413888104	1.802429316766408	19.26710118542242	0	0.9399999999999999	0	22.33290817433692	-8.025860818324549	-6.858770872888018	26.54671546839457	0.4633275905135938	0	0	0	22.33290817433692	-8.025860818324549	-6.858770872888018	26.54671546839457	0.4633275905135938	0	0	0	4.156118169162148	1.611670645891379	4.923072244789075	53.85615640276156	-8.108567175728925	41.31453009503791	53.86818213498511	144.1735137711547	0	0	68.05700144662461	-14.12542740473529	22.25411742881571	38.60840423971004	136.6166350875063	0	0
3.200000000000002	3.34217051670836	1.78749287894856	19.18539586558166	0	0.9399999999999999	0	22.35019579655928	-8.030597107187191	-6.863638617314045	26.56316400764171	0.4636146716806001	0	0	0	22.35019579655928	-8.030597107187191	-6.863638617314045	26.56316400764171	0.4636146716806001	0	0	0	4.174474567511549	1.593269813173582	4.979454755207794	54.00026032471995	-8.200183158461378	40.99494778353271	54.50064193708562	144.7122981644676	0	0	67.16549691522476	-14.3272642918533	22.03426593231562	39.77504388981059	136.3517965307483	0	0
3.220000000000002	3.33114343133488	1.765863098842277	19.11247608624813	0	0.9399999999999999	0	22.35935878206929	-8.033128940813807	-6.86623133550999	26.57182652621814	0.4637658611512738	0	0	0	22.35935878206929	-8.033128940813807	-6.86623133550999	26.57182652621814	0.4637658611512738	0	0	0	4.153801731310297	1.584894346580528	5.078894015631554	54.20773257970733	-8.323769900259775	40.69511774978598	54.8681841440226	145.5612558121624	0	0	67.09430496620493	-14.13538882990307	22.19436875681014	40.09181674985838	135.5035565423021	0	0
3.240000000000002	3.358635121689438	1.766618583830535	19.06647056377507	0	0.9399999999999999	0	22.37124976922266	-8.036405894592082	-6.869591003919089	26.58308762198347	0.4639624043497614	0	0	0	22.37124976922266	-8.036405894592082	-6.869591003919089	26.58308762198347	0.4639624043497614	0	0	0	4.177612114719333	1.583857587972988	5.163735242287786	54.30422928673304	-8.448639773394008	40.42093188248697	55.22443776812398	146.5076335206179	0	0	65.49370305795421	-13.87433699794345	21.2903678344179	41.39388897501147	135.5718216824305	0	0
3.260000000000002	3.381968380445664	1.756854673976644	18.48325582560319	0	0.9399999999999999	0	22.98970693292286	-8.152838989712835	-7.010970233076949	27.32124783814026	0.4768457305289303	0	0	0	22.98970693292286	-8.152838989712835	-7.010970233076949	27.32124783814026	0.4768457305289303	0	0	0	4.217239563400427	1.610452206016382	5.83859535608717	60.56977805596602	-8.279577232871173	30.48701647997526	51.67591348467543	150.7672813626587	0	0	65.33971493625346	-13.65918670247982	21.47940032737706	41.66326112769768	134.8920065381836	0	0
3.280000000000002	3.400510010014574	1.739857183223857	18.23752971636124	0	0.9399999999999999	0	23.00105148493366	-8.155867335301322	-7.014126276224674	27.33196003489229	0.4770326936323748	0	0	0	23.00105148493366	-8.155867335301322	-7.014126276224674	27.33196003489229	0.4770326936323748	0	0	0	4.222176073653642	1.611339335973686	6.130843962495033	62.44319237938902	-7.505692005283136	29.54175436832111	49.95583974872701	151.624970097749	0	0	64.30248869395426	-13.16599576360557	21.81754411253276	43.01253924305393	132.283089619585	0	0
3.300000000000002	3.38277396395235	1.703503678921211	18.10417777725521	0	0.9399999999999999	0	23.00901887795994	-8.15799143094107	-7.016341400222479	27.33948628719873	0.4771640515154579	0	0	0	23.00901887795994	-8.15799143094107	-7.016341400222479	27.33948628719873	0.4771640515154579	0	0	0	4.189223109855564	1.595579678461808	6.30953901320782	63.55631701063264	-7.282545098388315	29.23712994700251	49.08876022257331	151.9689914976748	0	0	63.98762162185383	-12.7971577254918	22.27863371462244	43.38209305329485	131.5035112227443	0	0
3.320000000000003	3.398436479060531	1.667637301046413	17.9889701303329	0	0.9399999999999999	0	23.02119193454684	-8.161257189053297	-7.019739375008348	27.35091102399538	0.4773634507887331	0	0	0	23.02119193454684	-8.161257189053297	-7.019739375008348	27.35091102399538	0.4773634507887331	0	0	0	4.190215420724424	1.565217047756222	6.419774879871206	63.61748183918715	-7.305680127041621	29.0624341423091	48.93700321456579	152.4873968353406	0	0	63.71012646399271	-12.48788982602243	22.52399942305962	43.85257386267612	129.8454370761061	0	0
3.340000000000003	3.425273074159811	1.661057658676562	18.04747922207031	0	0.9399999999999999	0	23.03121892961327	-8.163925425401198	-7.022524872333672	27.36038362836983	0.4775287789238062	0	0	0	23.03121892961327	-8.163925425401198	-7.022524872333672	27.36038362836983	0.4775287789238062	0	0	0	4.213987525822496	1.550477599740819	6.41836719690407	64.42306528117442	-6.974307182073911	29.09514394117926	48.04897916569302	152.3125496490498	0	0	63.40830304447007	-12.20337159381582	22.27557212302995	44.35998870175776	128.1701880036395	0	0
